<?xml version="1.0" standalone="no"?>
<!DOCTYPE svg PUBLIC "-//W3C//DTD SVG 20010904//EN"
 "http://www.w3.org/TR/2001/REC-SVG-20010904/DTD/svg10.dtd">
<svg version="1.0" xmlns="http://www.w3.org/2000/svg"
 width="1600.000000pt" height="1279.000000pt" viewBox="0 0 1600.000000 1279.000000"
 preserveAspectRatio="xMidYMid meet">

<g transform="translate(0.000000,1279.000000) scale(0.100000,-0.100000)"
fill="#000000" stroke="none">
<path d="M6612 9887 c-51 -16 -82 -50 -82 -91 0 -40 27 -62 65 -52 32 8 41 41
20 73 -17 25 -17 27 1 40 29 21 80 16 98 -9 19 -27 21 -107 4 -131 -7 -9 -37
-23 -66 -29 -28 -7 -51 -17 -49 -23 2 -5 25 -13 52 -17 64 -9 88 -34 89 -92 2
-82 -60 -130 -130 -101 -40 16 -40 19 -14 52 25 32 25 55 2 76 -25 22 -44 21
-76 -4 -35 -27 -34 -66 2 -107 35 -39 72 -53 138 -54 70 -1 118 17 154 58 56
64 31 161 -47 180 -12 4 -23 9 -23 12 0 3 18 20 40 39 35 30 40 40 40 77 0 49
-22 75 -82 101 -42 17 -87 18 -136 2z"/>
<path d="M7950 9879 c-34 -16 -49 -18 -62 -10 -33 21 -38 12 -38 -70 0 -58 3
-80 12 -77 6 2 16 17 21 34 14 44 52 90 87 104 24 10 39 10 70 1 48 -14 69
-49 73 -118 l2 -48 -74 -5 c-47 -3 -76 -10 -79 -17 -3 -10 13 -13 55 -13 32 0
69 -3 82 -7 22 -6 23 -9 17 -57 -10 -74 -35 -118 -79 -140 -34 -16 -44 -17
-83 -6 -58 17 -74 43 -39 66 34 22 42 59 20 84 -40 45 -105 7 -105 -60 0 -77
109 -143 208 -125 224 41 279 375 77 466 -52 24 -109 23 -165 -2z"/>
<path d="M8991 9883 c-5 -10 -30 -69 -55 -132 -84 -205 -124 -280 -152 -287
-16 -4 -24 -12 -22 -23 3 -13 18 -17 77 -19 94 -4 139 26 61 41 -32 7 -36 20
-20 61 9 25 12 26 99 26 l90 0 16 -31 c20 -37 14 -56 -17 -61 -13 -2 -23 -10
-23 -18 0 -22 216 -27 235 -5 10 12 8 16 -13 24 -37 14 -57 49 -135 230 -39
90 -78 174 -87 187 -18 28 -41 31 -54 7z m12 -175 c33 -71 47 -111 41 -119 -7
-12 -121 -12 -128 0 -7 10 53 151 64 151 4 0 15 -15 23 -32z"/>
<path d="M9381 9881 c-44 -33 -27 -111 24 -111 30 0 48 24 43 55 -4 16 -1 25
8 25 18 0 31 -26 39 -83 4 -26 16 -58 26 -71 24 -31 24 -33 -4 -40 -36 -9 -77
-60 -91 -112 -9 -37 -17 -50 -33 -52 -15 -2 -23 5 -31 27 -14 39 -32 40 -32 2
0 -36 38 -93 71 -105 63 -22 101 21 129 143 15 64 41 93 78 89 l27 -3 0 -90 0
-90 -30 -5 c-18 -3 -30 -11 -30 -20 0 -12 20 -15 115 -15 94 0 115 3 115 15 0
8 -11 17 -25 20 -24 6 -25 9 -28 98 l-3 92 28 0 c15 0 33 -4 39 -8 23 -16 44
-59 44 -92 1 -52 39 -123 73 -134 54 -19 108 22 122 92 5 25 3 32 -9 32 -9 0
-18 -11 -22 -24 -6 -27 -32 -42 -46 -28 -5 5 -15 33 -23 62 -13 51 -47 100
-69 100 -32 1 -37 17 -18 51 11 19 23 52 27 74 7 46 32 88 45 80 5 -3 7 -12 3
-20 -3 -8 -2 -26 1 -40 5 -19 13 -25 34 -25 37 0 52 17 52 56 0 78 -100 99
-144 31 -9 -13 -20 -48 -26 -78 -12 -62 -34 -89 -76 -92 l-29 -2 0 79 0 80 33
8 c17 5 32 12 32 17 0 16 -31 21 -136 21 -96 0 -104 -1 -104 -19 0 -14 8 -21
28 -23 27 -3 27 -4 30 -81 3 -89 -7 -101 -60 -70 -28 16 -35 29 -50 88 -25
105 -85 144 -147 96z"/>
<path d="M7247 9883 c-4 -3 -7 -19 -7 -34 0 -40 33 -59 103 -59 49 0 62 4 83
25 27 28 28 52 3 68 -28 17 -49 1 -49 -38 0 -34 -1 -35 -41 -35 -39 0 -41 1
-36 27 3 15 3 33 0 40 -5 13 -45 18 -56 6z"/>
<path d="M8292 9882 c-17 -12 -13 -164 5 -170 7 -2 15 5 19 15 16 53 48 102
75 113 57 24 59 18 59 -177 0 -98 -4 -183 -8 -189 -4 -7 -18 -14 -32 -15 -14
-2 -25 -11 -25 -19 0 -12 19 -15 115 -15 95 0 115 3 115 15 0 8 -9 16 -20 18
-43 8 -45 17 -45 204 0 197 2 202 61 178 35 -15 59 -47 68 -93 4 -18 13 -32
21 -32 12 0 15 17 15 85 l0 85 -205 2 c-113 2 -211 -1 -218 -5z"/>
<path d="M7150 9720 c0 -6 11 -15 25 -20 24 -9 25 -12 25 -109 0 -113 -4 -131
-31 -131 -10 0 -19 -7 -19 -15 0 -12 16 -15 85 -15 47 0 85 3 85 7 0 3 -7 14
-16 24 -15 17 -14 22 23 75 21 32 44 59 51 62 19 6 16 -122 -3 -138 -30 -25 6
-35 108 -32 51 2 62 17 22 32 -24 9 -25 12 -25 114 0 82 3 108 16 120 8 9 20
16 25 16 5 0 9 5 9 10 0 6 -33 10 -80 10 -64 0 -80 -3 -80 -15 0 -8 5 -15 10
-15 6 0 10 -5 10 -10 0 -14 -83 -139 -92 -139 -5 -1 -8 30 -8 68 0 49 4 72 15
81 29 24 14 30 -70 30 -51 0 -85 -4 -85 -10z"/>
<path d="M6924 9616 c-3 -8 -4 -23 -2 -33 3 -15 15 -18 81 -21 l77 -3 0 36 0
35 -75 0 c-57 0 -77 -4 -81 -14z"/>
<path d="M2815 8562 c-472 -1 -863 -6 -867 -10 -4 -4 -12 -172 -18 -372 -14
-517 -29 -1101 -35 -1405 -3 -143 -10 -397 -15 -565 -17 -519 -30 -996 -40
-1455 -6 -242 -15 -606 -20 -809 -5 -203 -7 -373 -4 -377 3 -5 489 -9 1093 -9
598 0 1163 -3 1254 -7 l167 -6 2 -201 3 -201 800 -6 c440 -3 1558 -8 2485 -10
l1685 -4 3 203 c2 151 6 202 15 203 55 2 1832 -2 2367 -6 371 -3 1013 -8 1425
-11 413 -3 758 -2 767 1 15 6 17 18 12 103 -3 54 -7 374 -8 712 l-1 615 258 3
257 2 0 25 0 25 -260 0 c-224 0 -260 2 -260 15 0 13 36 15 260 15 l260 0 0 25
0 25 -260 0 c-224 0 -260 2 -260 15 0 13 36 15 260 15 l260 0 0 30 0 30 -265
0 c-170 0 -265 4 -265 10 0 6 95 10 265 10 l265 0 0 30 0 30 -259 0 c-157 0
-262 4 -266 10 -12 19 52 23 287 17 l238 -6 0 29 0 30 -262 2 c-211 2 -262 6
-266 17 -4 11 38 13 259 10 l264 -4 3 28 3 27 -265 0 c-235 0 -266 2 -266 16
0 14 30 15 263 13 l262 -2 3 25 c4 35 -17 38 -294 38 -149 0 -234 4 -234 10 0
6 95 10 265 10 l265 0 0 24 c0 21 -5 24 -61 30 -34 3 -154 6 -266 6 -159 0
-204 3 -200 13 3 9 64 12 265 11 l262 -1 0 28 0 29 -266 0 c-192 0 -265 3
-262 11 3 8 79 11 266 10 l262 -2 0 30 0 31 -265 2 c-168 2 -265 7 -265 13 0
6 97 11 265 13 l265 2 0 24 0 24 -270 7 c-148 4 -270 11 -270 16 0 5 121 9
270 9 l270 0 0 25 c0 23 -4 25 -42 25 -114 0 -494 13 -498 17 -19 17 57 21
282 16 l258 -5 0 31 0 31 -270 0 c-173 0 -270 4 -270 10 0 11 34 12 343 10
l197 -1 0 30 0 31 -270 0 c-233 0 -270 2 -270 15 0 13 37 15 270 15 259 0 270
1 270 19 0 17 -10 20 -82 26 -103 8 -625 2 -635 -8 -4 -4 -6 -112 -4 -239 l3
-231 -929 7 c-714 4 -2481 9 -2560 6 -7 0 -13 -8 -13 -19 0 -10 6 -23 13 -28
8 -7 587 -13 1642 -17 897 -3 1678 -9 1737 -13 l108 -6 4 -31 c6 -36 26 -1285
27 -1671 l1 -260 -949 0 c-1013 0 -3143 13 -3332 20 -62 2 -116 7 -120 10 -3
4 -7 445 -9 981 l-3 974 223 2 223 3 3 27 c3 22 -2 29 -21 33 -13 4 -27 5 -33
4 -5 -1 -96 -1 -201 0 l-193 1 0 100 0 101 -87 -3 -88 -3 -5 -95 -5 -95 -162
-3 -163 -2 0 -29 c0 -17 6 -31 16 -35 9 -3 83 -6 165 -6 l149 0 2 -587 c1
-324 2 -858 2 -1188 l1 -600 -1875 2 c-1031 2 -2070 6 -2309 9 l-434 6 6 537
c4 295 10 653 13 796 3 143 9 436 13 650 l6 390 119 3 c125 3 147 10 139 42
-5 18 -16 20 -127 22 l-121 3 -2 120 c-4 176 3 165 -98 165 l-84 0 -3 -142 -3
-143 -78 -3 -78 -3 3 -27 c3 -26 4 -27 81 -30 l78 -3 -6 -207 c-3 -114 -10
-553 -16 -977 -6 -423 -14 -774 -18 -778 -10 -10 -2327 -5 -2337 5 -6 7 2 463
27 1492 6 250 15 455 21 461 6 6 289 10 806 11 l797 1 3 26 3 27 -803 2 -803
3 2 265 c2 146 4 321 7 390 l3 125 819 3 c525 1 822 6 828 12 33 33 -4 35
-827 40 l-812 5 2 255 c2 377 35 1634 42 1642 5 6 1666 12 2225 8 l79 0 -6
-502 c-15 -1115 -18 -1286 -23 -1345 l-6 -63 -83 0 c-62 0 -86 -4 -95 -15 -10
-12 -10 -19 -2 -27 13 -13 28 -15 124 -17 l57 -1 3 -132 3 -133 81 -3 81 -3 9
133 9 133 369 2 c203 1 375 4 382 7 8 3 14 16 14 28 l0 23 -383 3 c-210 2
-384 6 -386 8 -6 6 20 1437 26 1448 7 10 1430 -1 1446 -11 11 -7 4 -704 -7
-722 -5 -8 -83 -11 -265 -11 l-258 0 -6 -197 c-4 -108 -7 -249 -7 -314 0 -114
-1 -118 -22 -121 -21 -3 -23 -8 -23 -72 l0 -70 58 -4 c74 -5 87 6 87 72 0 56
-6 69 -34 79 -18 7 -18 19 -11 285 4 152 10 280 14 285 4 4 111 6 237 5 l229
-3 3 -326 2 -327 -22 -6 c-13 -3 -69 -6 -126 -6 l-103 0 3 -27 3 -28 420 0
420 0 3 28 3 27 -173 1 c-95 0 -190 3 -211 7 l-38 7 0 595 c1 327 4 653 8 724
l6 129 678 -6 c373 -3 683 -8 690 -13 9 -5 11 -86 6 -348 -4 -188 -7 -511 -7
-718 l0 -378 -171 0 -170 0 3 -27 3 -28 373 -3 373 -2 -3 27 -3 28 -112 3
-113 3 0 712 c0 392 4 717 8 724 8 13 132 15 906 14 l449 -1 -7 -722 c-4 -397
-9 -726 -12 -730 -3 -4 -133 -8 -290 -8 l-285 0 3 -27 3 -28 287 -3 287 -2 3
-153 3 -152 85 0 85 0 5 155 5 155 228 3 228 2 -3 23 c-3 22 -5 22 -228 27
-124 3 -227 7 -229 8 -6 3 8 1893 15 1903 10 17 4213 0 4295 -17 26 -5 27 -7
33 -102 5 -80 13 -792 20 -1637 l1 -160 -1712 4 c-1610 4 -1713 3 -1719 -13
-4 -10 -3 -21 2 -26 5 -5 404 -12 904 -15 1847 -11 2521 -21 2530 -36 7 -10
156 -16 165 -7 10 10 4 753 -14 1753 l-6 350 -62 7 c-35 4 -1088 8 -2340 10
l-2278 3 -3 -221 -2 -222 -86 -7 c-80 -7 -3366 2 -3774 10 -102 2 -299 4 -437
4 l-253 1 0 225 0 225 -452 2 c-249 2 -840 2 -1313 0z"/>
<path d="M6898 7378 c-2 -90 -4 -291 -3 -448 l0 -285 309 -3 c170 -1 313 1
318 6 9 9 12 867 3 882 -4 6 -114 10 -315 10 l-308 0 -4 -162z m240 113 c34
-1 62 -5 62 -11 0 -12 -227 -14 -234 -1 -10 16 8 22 58 17 28 -2 79 -5 114 -5z
m332 -10 c0 -5 -6 -11 -12 -13 -26 -7 -208 4 -208 13 0 5 49 9 110 9 61 0 110
-4 110 -9z m-283 -74 c-4 -12 -201 -12 -221 1 -20 12 26 17 124 14 72 -2 100
-7 97 -15z m281 1 c-3 -9 -33 -14 -89 -16 -90 -3 -129 2 -129 18 0 6 45 10
111 10 84 0 110 -3 107 -12z m-278 -68 c0 -6 -45 -10 -115 -10 -70 0 -115 4
-115 10 0 6 45 10 115 10 70 0 115 -4 115 -10z m273 -5 c-2 -5 -21 -10 -43 -9
-22 0 -69 2 -105 2 -37 1 -65 6 -65 12 0 7 38 10 108 8 65 -2 106 -7 105 -13z
m-275 -67 c-3 -9 -36 -13 -109 -14 -107 -2 -124 1 -114 17 4 5 56 9 116 9 84
0 110 -3 107 -12z m276 3 c8 -13 -31 -21 -104 -21 -73 0 -112 8 -104 21 3 5
50 9 104 9 54 0 101 -4 104 -9z m-276 -73 c-3 -9 -35 -13 -113 -13 -78 0 -110
4 -112 13 -4 9 23 12 112 12 89 0 116 -3 113 -12z m275 -3 c-4 -16 -205 -13
-211 3 -3 10 20 12 105 10 65 -2 107 -7 106 -13z m-275 -73 c3 -10 -21 -12
-109 -10 -80 2 -114 7 -117 16 -3 10 21 12 109 10 80 -2 114 -7 117 -16z m275
3 c1 -6 -40 -11 -105 -13 -88 -2 -108 0 -108 12 0 11 20 14 105 12 61 0 106
-5 108 -11z m-275 -72 c3 -10 -24 -13 -112 -13 -107 0 -128 5 -109 24 13 13
216 2 221 -11z m240 7 c26 0 41 -4 37 -10 -8 -13 -215 -13 -215 -1 0 15 30 20
85 15 28 -2 69 -4 93 -4z m-238 -80 c0 -6 -45 -10 -115 -10 -70 0 -115 4 -115
10 0 6 45 10 115 10 70 0 115 -4 115 -10z m270 0 c0 -6 -42 -10 -105 -10 -63
0 -105 4 -105 10 0 6 42 10 105 10 63 0 105 -4 105 -10z m-270 -70 c0 -6 -45
-10 -115 -10 -70 0 -115 4 -115 10 0 6 45 10 115 10 70 0 115 -4 115 -10z
m270 1 c0 -5 -6 -11 -12 -13 -24 -8 -198 4 -198 13 0 5 47 9 105 9 58 0 105
-4 105 -9z m-270 -71 c0 -6 -45 -10 -115 -10 -70 0 -115 4 -115 10 0 6 45 10
115 10 70 0 115 -4 115 -10z m258 -3 c1 -4 0 -7 -3 -7 -3 0 -48 0 -100 0 -62
0 -95 4 -95 11 0 12 193 8 198 -4z m-268 -72 c-5 -10 -180 -17 -213 -8 -9 2
-15 9 -11 14 8 13 231 7 224 -6z m278 -2 c3 -10 -18 -13 -85 -13 -96 0 -136 7
-127 21 9 15 207 7 212 -8z m-270 -70 c3 -10 -24 -13 -112 -13 -105 0 -136 6
-119 24 13 13 226 2 231 -11z m256 11 c40 -15 8 -24 -89 -24 -87 0 -105 3
-105 15 0 12 17 15 89 15 49 0 96 -3 105 -6z"/>
<path d="M5614 5685 c-4 -8 -4 -22 0 -30 5 -13 165 -15 1346 -17 737 -1 1373
-3 1413 -3 70 0 72 1 72 25 l0 25 -295 6 c-162 3 -798 7 -1413 8 -985 1 -1118
-1 -1123 -14z"/>
</g>
</svg>
